%TF.GenerationSoftware,KiCad,Pcbnew,9.0.7*%
%TF.CreationDate,2026-03-30T11:04:44+05:30*%
%TF.ProjectId,FINAL_DESIGN,46494e41-4c5f-4444-9553-49474e2e6b69,rev?*%
%TF.SameCoordinates,Original*%
%TF.FileFunction,Soldermask,Bot*%
%TF.FilePolarity,Negative*%
%FSLAX46Y46*%
G04 Gerber Fmt 4.6, Leading zero omitted, Abs format (unit mm)*
G04 Created by KiCad (PCBNEW 9.0.7) date 2026-03-30 11:04:44*
%MOMM*%
%LPD*%
G01*
G04 APERTURE LIST*
G04 Aperture macros list*
%AMRoundRect*
0 Rectangle with rounded corners*
0 $1 Rounding radius*
0 $2 $3 $4 $5 $6 $7 $8 $9 X,Y pos of 4 corners*
0 Add a 4 corners polygon primitive as box body*
4,1,4,$2,$3,$4,$5,$6,$7,$8,$9,$2,$3,0*
0 Add four circle primitives for the rounded corners*
1,1,$1+$1,$2,$3*
1,1,$1+$1,$4,$5*
1,1,$1+$1,$6,$7*
1,1,$1+$1,$8,$9*
0 Add four rect primitives between the rounded corners*
20,1,$1+$1,$2,$3,$4,$5,0*
20,1,$1+$1,$4,$5,$6,$7,0*
20,1,$1+$1,$6,$7,$8,$9,0*
20,1,$1+$1,$8,$9,$2,$3,0*%
G04 Aperture macros list end*
%ADD10C,2.200000*%
%ADD11C,1.600000*%
%ADD12RoundRect,0.250000X-0.550000X0.550000X-0.550000X-0.550000X0.550000X-0.550000X0.550000X0.550000X0*%
%ADD13RoundRect,0.250000X0.550000X0.550000X-0.550000X0.550000X-0.550000X-0.550000X0.550000X-0.550000X0*%
%ADD14RoundRect,0.250001X-1.149999X1.149999X-1.149999X-1.149999X1.149999X-1.149999X1.149999X1.149999X0*%
%ADD15C,2.800000*%
%ADD16R,1.100000X1.800000*%
%ADD17RoundRect,0.275000X-0.275000X-0.625000X0.275000X-0.625000X0.275000X0.625000X-0.275000X0.625000X0*%
%ADD18RoundRect,0.102000X-1.200000X1.200000X-1.200000X-1.200000X1.200000X-1.200000X1.200000X1.200000X0*%
%ADD19C,2.604000*%
%ADD20C,2.400000*%
%ADD21RoundRect,0.250000X1.050000X-1.050000X1.050000X1.050000X-1.050000X1.050000X-1.050000X-1.050000X0*%
%ADD22C,2.600000*%
%ADD23RoundRect,0.250000X0.550000X-0.550000X0.550000X0.550000X-0.550000X0.550000X-0.550000X-0.550000X0*%
%ADD24R,1.700000X1.700000*%
%ADD25C,1.700000*%
%ADD26RoundRect,0.250000X1.050000X1.050000X-1.050000X1.050000X-1.050000X-1.050000X1.050000X-1.050000X0*%
%ADD27C,2.634000*%
%ADD28RoundRect,0.102000X-1.215000X-1.215000X1.215000X-1.215000X1.215000X1.215000X-1.215000X1.215000X0*%
G04 APERTURE END LIST*
D10*
%TO.C,REF\u002A\u002A*%
X70470000Y-37010000D03*
%TD*%
D11*
%TO.C,C4*%
X94727500Y-43985000D03*
X94727500Y-46485000D03*
%TD*%
D10*
%TO.C,REF\u002A\u002A*%
X163340000Y-37010000D03*
%TD*%
D12*
%TO.C,C3*%
X103027500Y-43835000D03*
D11*
X103027500Y-46335000D03*
%TD*%
D13*
%TO.C,C1*%
X91577500Y-52760000D03*
D11*
X89077500Y-52760000D03*
%TD*%
D14*
%TO.C,D2*%
X110227500Y-44060000D03*
D15*
X110227500Y-54220000D03*
%TD*%
D16*
%TO.C,Q1*%
X114607500Y-47430000D03*
D17*
X115877500Y-45360000D03*
X117147500Y-47430000D03*
%TD*%
D18*
%TO.C,J2*%
X78940000Y-69689128D03*
D19*
X78940000Y-74769128D03*
X78940000Y-79849128D03*
X78940000Y-84929128D03*
X78940000Y-90009128D03*
X78940000Y-95089128D03*
X78940000Y-100169128D03*
X78940000Y-105249128D03*
X78940000Y-110329128D03*
X78940000Y-115409128D03*
X78940000Y-120489128D03*
X78940000Y-125569128D03*
X78940000Y-130649128D03*
X78940000Y-135729128D03*
X78940000Y-140809128D03*
X78940000Y-145889128D03*
X78940000Y-150969128D03*
X78940000Y-156049128D03*
X78940000Y-161129128D03*
%TD*%
D20*
%TO.C,F1*%
X143940000Y-47810000D03*
D10*
X150340000Y-49060000D03*
X150340000Y-46560000D03*
X146840000Y-49060000D03*
X146840000Y-46560000D03*
X141040000Y-49060000D03*
X141040000Y-46560000D03*
X137540000Y-49060000D03*
X137540000Y-46560000D03*
%TD*%
D21*
%TO.C,J1*%
X160030000Y-47110000D03*
D22*
X160030000Y-43610000D03*
%TD*%
D23*
%TO.C,C2*%
X115352500Y-61217380D03*
D11*
X115352500Y-58717380D03*
%TD*%
%TO.C,C8*%
X128902500Y-61185000D03*
X128902500Y-58685000D03*
%TD*%
D24*
%TO.C,J5*%
X129415000Y-116600240D03*
D25*
X129415000Y-119140240D03*
X129415000Y-121680240D03*
X129415000Y-124220240D03*
X129415000Y-126760240D03*
X129415000Y-129300240D03*
X129415000Y-131840240D03*
X129415000Y-134380240D03*
X129415000Y-136920240D03*
X129415000Y-139460240D03*
X129415000Y-142000240D03*
X129415000Y-144540240D03*
X129415000Y-147080240D03*
X129415000Y-149620240D03*
X129415000Y-152160240D03*
X129415000Y-154700240D03*
X129415000Y-157240240D03*
X129415000Y-159780240D03*
X129415000Y-162320240D03*
%TD*%
D24*
%TO.C,J3*%
X103940000Y-116530240D03*
D25*
X103940000Y-119070240D03*
X103940000Y-121610240D03*
X103940000Y-124150240D03*
X103940000Y-126690240D03*
X103940000Y-129230240D03*
X103940000Y-131770240D03*
X103940000Y-134310240D03*
X103940000Y-136850240D03*
X103940000Y-139390240D03*
X103940000Y-141930240D03*
X103940000Y-144470240D03*
X103940000Y-147010240D03*
X103940000Y-149550240D03*
X103940000Y-152090240D03*
X103940000Y-154630240D03*
X103940000Y-157170240D03*
X103940000Y-159710240D03*
X103940000Y-162250240D03*
%TD*%
D26*
%TO.C,D3*%
X151747500Y-59960000D03*
D22*
X136507500Y-59960000D03*
%TD*%
D23*
%TO.C,C5*%
X122802500Y-61149760D03*
D11*
X122802500Y-58649760D03*
%TD*%
D18*
%TO.C,J4*%
X154415000Y-69689128D03*
D19*
X154415000Y-74769128D03*
X154415000Y-79849128D03*
X154415000Y-84929128D03*
X154415000Y-90009128D03*
X154415000Y-95089128D03*
X154415000Y-100169128D03*
X154415000Y-105249128D03*
X154415000Y-110329128D03*
X154415000Y-115409128D03*
X154415000Y-120489128D03*
X154415000Y-125569128D03*
X154415000Y-130649128D03*
X154415000Y-135729128D03*
X154415000Y-140809128D03*
X154415000Y-145889128D03*
X154415000Y-150969128D03*
X154415000Y-156049128D03*
X154415000Y-161129128D03*
%TD*%
D27*
%TO.C,D1*%
X124310000Y-80270000D03*
D28*
X105330000Y-80270000D03*
%TD*%
D10*
%TO.C,REF\u002A\u002A*%
X163340000Y-166360000D03*
%TD*%
%TO.C,REF\u002A\u002A*%
X70470000Y-166480000D03*
%TD*%
D11*
%TO.C,C7*%
X131877500Y-61185000D03*
X131877500Y-58685000D03*
%TD*%
%TO.C,C6*%
X97302500Y-43985000D03*
X97302500Y-46485000D03*
%TD*%
M02*
