M48
; DRILL file {KiCad 9.0.7} date 2026-03-26T19:38:43+0530
; FORMAT={-:-/ absolute / metric / decimal}
; #@! TF.CreationDate,2026-03-26T19:38:43+05:30
; #@! TF.GenerationSoftware,Kicad,Pcbnew,9.0.7
; #@! TF.FileFunction,Plated,1,2,PTH
FMAT,2
METRIC
; #@! TA.AperFunction,Plated,PTH,ComponentDrill
T1C0.750
; #@! TA.AperFunction,Plated,PTH,ComponentDrill
T2C0.800
; #@! TA.AperFunction,Plated,PTH,ComponentDrill
T3C1.000
; #@! TA.AperFunction,Plated,PTH,ComponentDrill
T4C1.020
; #@! TA.AperFunction,Plated,PTH,ComponentDrill
T5C1.300
; #@! TA.AperFunction,Plated,PTH,ComponentDrill
T6C1.400
; #@! TA.AperFunction,Plated,PTH,ComponentDrill
T7C1.600
; #@! TA.AperFunction,Plated,PTH,ComponentDrill
T8C1.620
%
G90
G05
T1
X114.667Y-47.22
X115.938Y-45.95
X117.207Y-47.22
T2
X89.138Y-52.95
X91.638Y-52.95
X94.787Y-44.175
X94.787Y-46.675
X97.362Y-44.175
X97.362Y-46.675
X103.087Y-44.025
X103.087Y-46.525
X115.412Y-58.907
X115.412Y-61.407
X122.862Y-58.84
X122.862Y-61.34
X128.963Y-58.875
X128.963Y-61.375
X131.938Y-58.875
X131.938Y-61.375
T3
X104.0Y-116.72
X104.0Y-119.26
X104.0Y-121.8
X104.0Y-124.34
X104.0Y-126.88
X104.0Y-129.42
X104.0Y-131.96
X104.0Y-134.5
X104.0Y-137.04
X104.0Y-139.58
X104.0Y-142.12
X104.0Y-144.66
X104.0Y-147.2
X104.0Y-149.74
X104.0Y-152.28
X104.0Y-154.82
X104.0Y-157.36
X104.0Y-159.9
X104.0Y-162.44
X129.475Y-116.79
X129.475Y-119.33
X129.475Y-121.87
X129.475Y-124.41
X129.475Y-126.95
X129.475Y-129.49
X129.475Y-132.03
X129.475Y-134.57
X129.475Y-137.11
X129.475Y-139.65
X129.475Y-142.19
X129.475Y-144.73
X129.475Y-147.27
X129.475Y-149.81
X129.475Y-152.35
X129.475Y-154.89
X129.475Y-157.43
X129.475Y-159.97
X129.475Y-162.51
T4
X195.8Y-107.64
X195.8Y-110.18
X195.8Y-112.72
X195.8Y-115.26
X195.8Y-117.8
X195.8Y-120.34
X195.8Y-122.88
X195.8Y-125.42
X195.8Y-127.96
X195.8Y-130.5
X195.8Y-133.04
X195.8Y-135.58
X195.8Y-138.12
X195.8Y-140.66
X195.8Y-143.2
X195.8Y-145.74
X195.8Y-148.28
X195.8Y-150.82
X195.8Y-153.36
X221.2Y-107.64
X221.2Y-110.18
X221.2Y-112.72
X221.2Y-115.26
X221.2Y-117.8
X221.2Y-120.34
X221.2Y-122.88
X221.2Y-125.42
X221.2Y-127.96
X221.2Y-130.5
X221.2Y-133.04
X221.2Y-135.58
X221.2Y-138.12
X221.2Y-140.66
X221.2Y-143.2
X221.2Y-145.74
X221.2Y-148.28
X221.2Y-150.82
X221.2Y-153.36
T5
X136.567Y-60.15
X151.808Y-60.15
X160.09Y-43.8
X160.09Y-47.3
T6
X110.287Y-44.25
X110.287Y-54.41
X137.6Y-46.75
X137.6Y-49.25
X141.1Y-46.75
X141.1Y-49.25
X146.9Y-46.75
X146.9Y-49.25
X150.4Y-46.75
X150.4Y-49.25
T7
X79.0Y-69.879
X79.0Y-74.959
X79.0Y-80.039
X79.0Y-85.119
X79.0Y-90.199
X79.0Y-95.279
X79.0Y-100.359
X79.0Y-105.439
X79.0Y-110.519
X79.0Y-115.599
X79.0Y-120.679
X79.0Y-125.759
X79.0Y-130.839
X79.0Y-135.919
X79.0Y-140.999
X79.0Y-146.079
X79.0Y-151.159
X79.0Y-156.239
X79.0Y-161.319
X154.475Y-69.879
X154.475Y-74.959
X154.475Y-80.039
X154.475Y-85.119
X154.475Y-90.199
X154.475Y-95.279
X154.475Y-100.359
X154.475Y-105.439
X154.475Y-110.519
X154.475Y-115.599
X154.475Y-120.679
X154.475Y-125.759
X154.475Y-130.839
X154.475Y-135.919
X154.475Y-140.999
X154.475Y-146.079
X154.475Y-151.159
X154.475Y-156.239
X154.475Y-161.319
T8
X105.39Y-80.46
X124.37Y-80.46
M30
