%TF.GenerationSoftware,KiCad,Pcbnew,9.0.7*%
%TF.CreationDate,2026-03-30T11:04:44+05:30*%
%TF.ProjectId,FINAL_DESIGN,46494e41-4c5f-4444-9553-49474e2e6b69,rev?*%
%TF.SameCoordinates,Original*%
%TF.FileFunction,Soldermask,Top*%
%TF.FilePolarity,Negative*%
%FSLAX46Y46*%
G04 Gerber Fmt 4.6, Leading zero omitted, Abs format (unit mm)*
G04 Created by KiCad (PCBNEW 9.0.7) date 2026-03-30 11:04:44*
%MOMM*%
%LPD*%
G01*
G04 APERTURE LIST*
G04 Aperture macros list*
%AMRoundRect*
0 Rectangle with rounded corners*
0 $1 Rounding radius*
0 $2 $3 $4 $5 $6 $7 $8 $9 X,Y pos of 4 corners*
0 Add a 4 corners polygon primitive as box body*
4,1,4,$2,$3,$4,$5,$6,$7,$8,$9,$2,$3,0*
0 Add four circle primitives for the rounded corners*
1,1,$1+$1,$2,$3*
1,1,$1+$1,$4,$5*
1,1,$1+$1,$6,$7*
1,1,$1+$1,$8,$9*
0 Add four rect primitives between the rounded corners*
20,1,$1+$1,$2,$3,$4,$5,0*
20,1,$1+$1,$4,$5,$6,$7,0*
20,1,$1+$1,$6,$7,$8,$9,0*
20,1,$1+$1,$8,$9,$2,$3,0*%
G04 Aperture macros list end*
%ADD10RoundRect,0.050000X-0.150000X-0.300000X0.150000X-0.300000X0.150000X0.300000X-0.150000X0.300000X0*%
%ADD11C,2.200000*%
%ADD12RoundRect,0.050000X0.150000X0.300000X-0.150000X0.300000X-0.150000X-0.300000X0.150000X-0.300000X0*%
%ADD13C,1.600000*%
%ADD14RoundRect,0.102000X0.460000X0.690000X-0.460000X0.690000X-0.460000X-0.690000X0.460000X-0.690000X0*%
%ADD15RoundRect,0.250000X-0.550000X0.550000X-0.550000X-0.550000X0.550000X-0.550000X0.550000X0.550000X0*%
%ADD16RoundRect,0.250000X0.550000X0.550000X-0.550000X0.550000X-0.550000X-0.550000X0.550000X-0.550000X0*%
%ADD17RoundRect,0.102000X-0.460000X-0.690000X0.460000X-0.690000X0.460000X0.690000X-0.460000X0.690000X0*%
%ADD18RoundRect,0.250001X-1.149999X1.149999X-1.149999X-1.149999X1.149999X-1.149999X1.149999X1.149999X0*%
%ADD19C,2.800000*%
%ADD20R,1.100000X1.800000*%
%ADD21RoundRect,0.275000X-0.275000X-0.625000X0.275000X-0.625000X0.275000X0.625000X-0.275000X0.625000X0*%
%ADD22RoundRect,0.102000X-1.200000X1.200000X-1.200000X-1.200000X1.200000X-1.200000X1.200000X1.200000X0*%
%ADD23C,2.604000*%
%ADD24RoundRect,0.250000X0.450000X-0.350000X0.450000X0.350000X-0.450000X0.350000X-0.450000X-0.350000X0*%
%ADD25C,2.400000*%
%ADD26RoundRect,0.250000X1.050000X-1.050000X1.050000X1.050000X-1.050000X1.050000X-1.050000X-1.050000X0*%
%ADD27C,2.600000*%
%ADD28RoundRect,0.250000X0.550000X-0.550000X0.550000X0.550000X-0.550000X0.550000X-0.550000X-0.550000X0*%
%ADD29C,1.500000*%
%ADD30R,1.700000X1.700000*%
%ADD31C,1.700000*%
%ADD32RoundRect,0.250000X1.050000X1.050000X-1.050000X1.050000X-1.050000X-1.050000X1.050000X-1.050000X0*%
%ADD33C,2.634000*%
%ADD34RoundRect,0.102000X-1.215000X-1.215000X1.215000X-1.215000X1.215000X1.215000X-1.215000X1.215000X0*%
%ADD35R,5.500000X2.150000*%
%ADD36RoundRect,0.250000X0.300000X-2.050000X0.300000X2.050000X-0.300000X2.050000X-0.300000X-2.050000X0*%
%ADD37RoundRect,0.250002X5.149998X-4.449998X5.149998X4.449998X-5.149998X4.449998X-5.149998X-4.449998X0*%
G04 APERTURE END LIST*
D10*
%TO.C,D9*%
X86590000Y-107350240D03*
X87290000Y-107350240D03*
%TD*%
%TO.C,D4*%
X86590000Y-145970240D03*
X87290000Y-145970240D03*
%TD*%
D11*
%TO.C,REF\u002A\u002A*%
X70470000Y-37010000D03*
%TD*%
D12*
%TO.C,D17*%
X146765000Y-117680240D03*
X146065000Y-117680240D03*
%TD*%
D10*
%TO.C,D15*%
X86590000Y-156300240D03*
X87290000Y-156300240D03*
%TD*%
D12*
%TO.C,D22*%
X146765000Y-95330240D03*
X146065000Y-95330240D03*
%TD*%
D13*
%TO.C,C4*%
X94727500Y-43985000D03*
X94727500Y-46485000D03*
%TD*%
D14*
%TO.C,R16*%
X134620000Y-139525240D03*
X132710000Y-139525240D03*
%TD*%
D10*
%TO.C,D13*%
X86590000Y-135740240D03*
X87290000Y-135740240D03*
%TD*%
D14*
%TO.C,R21*%
X134620000Y-129325240D03*
X132710000Y-129325240D03*
%TD*%
D11*
%TO.C,REF\u002A\u002A*%
X163340000Y-37010000D03*
%TD*%
D15*
%TO.C,C3*%
X103027500Y-43835000D03*
D13*
X103027500Y-46335000D03*
%TD*%
D14*
%TO.C,R20*%
X134620000Y-126775240D03*
X132710000Y-126775240D03*
%TD*%
D16*
%TO.C,C1*%
X91577500Y-52760000D03*
D13*
X89077500Y-52760000D03*
%TD*%
D10*
%TO.C,D12*%
X86590000Y-125800240D03*
X87290000Y-125800240D03*
%TD*%
D17*
%TO.C,R3*%
X98735000Y-154775240D03*
X100645000Y-154775240D03*
%TD*%
%TO.C,R5*%
X98735000Y-129630240D03*
X100645000Y-129630240D03*
%TD*%
D18*
%TO.C,D2*%
X110227500Y-44060000D03*
D19*
X110227500Y-54220000D03*
%TD*%
D17*
%TO.C,R12*%
X98735000Y-149350240D03*
X100645000Y-149350240D03*
%TD*%
D14*
%TO.C,R17*%
X134620000Y-142150240D03*
X132710000Y-142150240D03*
%TD*%
D20*
%TO.C,Q1*%
X114607500Y-47430000D03*
D21*
X115877500Y-45360000D03*
X117147500Y-47430000D03*
%TD*%
D22*
%TO.C,J2*%
X78940000Y-69689128D03*
D23*
X78940000Y-74769128D03*
X78940000Y-79849128D03*
X78940000Y-84929128D03*
X78940000Y-90009128D03*
X78940000Y-95089128D03*
X78940000Y-100169128D03*
X78940000Y-105249128D03*
X78940000Y-110329128D03*
X78940000Y-115409128D03*
X78940000Y-120489128D03*
X78940000Y-125569128D03*
X78940000Y-130649128D03*
X78940000Y-135729128D03*
X78940000Y-140809128D03*
X78940000Y-145889128D03*
X78940000Y-150969128D03*
X78940000Y-156049128D03*
X78940000Y-161129128D03*
%TD*%
D12*
%TO.C,D20*%
X146765000Y-105230240D03*
X146065000Y-105230240D03*
%TD*%
D24*
%TO.C,R2*%
X120949152Y-44884896D03*
X120949152Y-42884896D03*
%TD*%
D17*
%TO.C,R8*%
X98735000Y-132730240D03*
X100645000Y-132730240D03*
%TD*%
D12*
%TO.C,D21*%
X146765000Y-90810000D03*
X146065000Y-90810000D03*
%TD*%
D10*
%TO.C,D6*%
X86590000Y-103510240D03*
X87290000Y-103510240D03*
%TD*%
D25*
%TO.C,F1*%
X143940000Y-47810000D03*
D11*
X150340000Y-49060000D03*
X150340000Y-46560000D03*
X146840000Y-49060000D03*
X146840000Y-46560000D03*
X141040000Y-49060000D03*
X141040000Y-46560000D03*
X137540000Y-49060000D03*
X137540000Y-46560000D03*
%TD*%
D12*
%TO.C,D16*%
X146765000Y-112130240D03*
X146065000Y-112130240D03*
%TD*%
D14*
%TO.C,R6*%
X134385000Y-151975240D03*
X132475000Y-151975240D03*
%TD*%
D17*
%TO.C,R13*%
X98735000Y-157450240D03*
X100645000Y-157450240D03*
%TD*%
D26*
%TO.C,J1*%
X160030000Y-47110000D03*
D27*
X160030000Y-43610000D03*
%TD*%
D17*
%TO.C,R9*%
X98735000Y-135810000D03*
X100645000Y-135810000D03*
%TD*%
D28*
%TO.C,C2*%
X115352500Y-61217380D03*
D13*
X115352500Y-58717380D03*
%TD*%
%TO.C,C8*%
X128902500Y-61185000D03*
X128902500Y-58685000D03*
%TD*%
D17*
%TO.C,R14*%
X98735000Y-160275240D03*
X100645000Y-160275240D03*
%TD*%
D29*
%TO.C,TP1*%
X114677500Y-52635000D03*
%TD*%
D14*
%TO.C,R18*%
X134620000Y-131825240D03*
X132710000Y-131825240D03*
%TD*%
D17*
%TO.C,R4*%
X98735000Y-152100240D03*
X100645000Y-152100240D03*
%TD*%
D30*
%TO.C,J5*%
X129415000Y-116600240D03*
D31*
X129415000Y-119140240D03*
X129415000Y-121680240D03*
X129415000Y-124220240D03*
X129415000Y-126760240D03*
X129415000Y-129300240D03*
X129415000Y-131840240D03*
X129415000Y-134380240D03*
X129415000Y-136920240D03*
X129415000Y-139460240D03*
X129415000Y-142000240D03*
X129415000Y-144540240D03*
X129415000Y-147080240D03*
X129415000Y-149620240D03*
X129415000Y-152160240D03*
X129415000Y-154700240D03*
X129415000Y-157240240D03*
X129415000Y-159780240D03*
X129415000Y-162320240D03*
%TD*%
D30*
%TO.C,J3*%
X103940000Y-116530240D03*
D31*
X103940000Y-119070240D03*
X103940000Y-121610240D03*
X103940000Y-124150240D03*
X103940000Y-126690240D03*
X103940000Y-129230240D03*
X103940000Y-131770240D03*
X103940000Y-134310240D03*
X103940000Y-136850240D03*
X103940000Y-139390240D03*
X103940000Y-141930240D03*
X103940000Y-144470240D03*
X103940000Y-147010240D03*
X103940000Y-149550240D03*
X103940000Y-152090240D03*
X103940000Y-154630240D03*
X103940000Y-157170240D03*
X103940000Y-159710240D03*
X103940000Y-162250240D03*
%TD*%
D17*
%TO.C,R11*%
X98735000Y-144140240D03*
X100645000Y-144140240D03*
%TD*%
D32*
%TO.C,D3*%
X151747500Y-59960000D03*
D27*
X136507500Y-59960000D03*
%TD*%
D28*
%TO.C,C5*%
X122802500Y-61149760D03*
D13*
X122802500Y-58649760D03*
%TD*%
D22*
%TO.C,J4*%
X154415000Y-69689128D03*
D23*
X154415000Y-74769128D03*
X154415000Y-79849128D03*
X154415000Y-84929128D03*
X154415000Y-90009128D03*
X154415000Y-95089128D03*
X154415000Y-100169128D03*
X154415000Y-105249128D03*
X154415000Y-110329128D03*
X154415000Y-115409128D03*
X154415000Y-120489128D03*
X154415000Y-125569128D03*
X154415000Y-130649128D03*
X154415000Y-135729128D03*
X154415000Y-140809128D03*
X154415000Y-145889128D03*
X154415000Y-150969128D03*
X154415000Y-156049128D03*
X154415000Y-161129128D03*
%TD*%
D33*
%TO.C,D1*%
X124310000Y-80270000D03*
D34*
X105330000Y-80270000D03*
%TD*%
D24*
%TO.C,R1*%
X126250954Y-46810000D03*
X126250954Y-44810000D03*
%TD*%
D14*
%TO.C,R15*%
X134620000Y-136925240D03*
X132710000Y-136925240D03*
%TD*%
D12*
%TO.C,D7*%
X146765000Y-141090240D03*
X146065000Y-141090240D03*
%TD*%
%TO.C,D19*%
X147027500Y-100270240D03*
X146327500Y-100270240D03*
%TD*%
D10*
%TO.C,D11*%
X86590000Y-120620240D03*
X87290000Y-120620240D03*
%TD*%
D35*
%TO.C,L1*%
X113515000Y-70670000D03*
X113515000Y-66810000D03*
%TD*%
D17*
%TO.C,R10*%
X98735000Y-141390240D03*
X100645000Y-141390240D03*
%TD*%
D29*
%TO.C,TP3*%
X151702500Y-55585000D03*
%TD*%
D12*
%TO.C,D8*%
X146765000Y-125660240D03*
X146065000Y-125660240D03*
%TD*%
D11*
%TO.C,REF\u002A\u002A*%
X163340000Y-166360000D03*
%TD*%
D12*
%TO.C,D18*%
X147107500Y-120890000D03*
X146407500Y-120890000D03*
%TD*%
D11*
%TO.C,REF\u002A\u002A*%
X70470000Y-166480000D03*
%TD*%
D10*
%TO.C,D5*%
X86590000Y-141040240D03*
X87290000Y-141040240D03*
%TD*%
D14*
%TO.C,R7*%
X134620000Y-145275240D03*
X132710000Y-145275240D03*
%TD*%
D13*
%TO.C,C7*%
X131877500Y-61185000D03*
X131877500Y-58685000D03*
%TD*%
D10*
%TO.C,D14*%
X86590000Y-151090240D03*
X87290000Y-151090240D03*
%TD*%
D13*
%TO.C,C6*%
X97302500Y-43985000D03*
X97302500Y-46485000D03*
%TD*%
D14*
%TO.C,R19*%
X134620000Y-134225240D03*
X132710000Y-134225240D03*
%TD*%
D10*
%TO.C,D10*%
X86590000Y-110670240D03*
X87290000Y-110670240D03*
%TD*%
D29*
%TO.C,TP2*%
X145660000Y-69900240D03*
%TD*%
D36*
%TO.C,U1*%
X98202500Y-64460000D03*
X99902500Y-64460000D03*
X101602500Y-64460000D03*
D37*
X101602500Y-55310000D03*
D36*
X103302500Y-64460000D03*
X105002500Y-64460000D03*
%TD*%
M02*
