%TF.GenerationSoftware,KiCad,Pcbnew,9.0.7*%
%TF.CreationDate,2026-03-25T15:14:42+05:30*%
%TF.ProjectId,FINAL_DESIGN,46494e41-4c5f-4444-9553-49474e2e6b69,rev?*%
%TF.SameCoordinates,Original*%
%TF.FileFunction,Paste,Top*%
%TF.FilePolarity,Positive*%
%FSLAX46Y46*%
G04 Gerber Fmt 4.6, Leading zero omitted, Abs format (unit mm)*
G04 Created by KiCad (PCBNEW 9.0.7) date 2026-03-25 15:14:42*
%MOMM*%
%LPD*%
G01*
G04 APERTURE LIST*
G04 Aperture macros list*
%AMRoundRect*
0 Rectangle with rounded corners*
0 $1 Rounding radius*
0 $2 $3 $4 $5 $6 $7 $8 $9 X,Y pos of 4 corners*
0 Add a 4 corners polygon primitive as box body*
4,1,4,$2,$3,$4,$5,$6,$7,$8,$9,$2,$3,0*
0 Add four circle primitives for the rounded corners*
1,1,$1+$1,$2,$3*
1,1,$1+$1,$4,$5*
1,1,$1+$1,$6,$7*
1,1,$1+$1,$8,$9*
0 Add four rect primitives between the rounded corners*
20,1,$1+$1,$2,$3,$4,$5,0*
20,1,$1+$1,$4,$5,$6,$7,0*
20,1,$1+$1,$6,$7,$8,$9,0*
20,1,$1+$1,$8,$9,$2,$3,0*%
G04 Aperture macros list end*
%ADD10RoundRect,0.067500X0.137500X0.067500X-0.137500X0.067500X-0.137500X-0.067500X0.137500X-0.067500X0*%
%ADD11RoundRect,0.050000X-0.100000X-0.250000X0.100000X-0.250000X0.100000X0.250000X-0.100000X0.250000X0*%
%ADD12RoundRect,0.050000X0.100000X0.250000X-0.100000X0.250000X-0.100000X-0.250000X0.100000X-0.250000X0*%
%ADD13RoundRect,0.250000X2.375000X-2.025000X2.375000X2.025000X-2.375000X2.025000X-2.375000X-2.025000X0*%
%ADD14RoundRect,0.250000X0.300000X-2.050000X0.300000X2.050000X-0.300000X2.050000X-0.300000X-2.050000X0*%
%ADD15R,0.920000X1.380000*%
%ADD16RoundRect,0.250000X-0.450000X0.350000X-0.450000X-0.350000X0.450000X-0.350000X0.450000X0.350000X0*%
%ADD17RoundRect,0.250000X0.450000X-0.350000X0.450000X0.350000X-0.450000X0.350000X-0.450000X-0.350000X0*%
%ADD18R,5.500000X2.150000*%
G04 APERTURE END LIST*
D10*
%TO.C,D1*%
X108062500Y-80870000D03*
X107337500Y-80870000D03*
%TD*%
D11*
%TO.C,D4*%
X78182500Y-154190000D03*
X78882500Y-154190000D03*
%TD*%
%TO.C,D5*%
X78360000Y-149260000D03*
X79060000Y-149260000D03*
%TD*%
%TO.C,D6*%
X78402500Y-111730000D03*
X79102500Y-111730000D03*
%TD*%
D12*
%TO.C,D7*%
X155787500Y-149310000D03*
X155087500Y-149310000D03*
%TD*%
%TO.C,D8*%
X155870000Y-133880000D03*
X155170000Y-133880000D03*
%TD*%
D11*
%TO.C,D9*%
X79050000Y-115570000D03*
X78350000Y-115570000D03*
%TD*%
%TO.C,D10*%
X79112500Y-118890000D03*
X78412500Y-118890000D03*
%TD*%
%TO.C,D11*%
X79092500Y-128840000D03*
X78392500Y-128840000D03*
%TD*%
%TO.C,D12*%
X78502500Y-134020000D03*
X79202500Y-134020000D03*
%TD*%
%TO.C,D13*%
X78452500Y-143960000D03*
X79152500Y-143960000D03*
%TD*%
%TO.C,D14*%
X78102500Y-159310000D03*
X78802500Y-159310000D03*
%TD*%
%TO.C,D15*%
X77992500Y-164520000D03*
X78692500Y-164520000D03*
%TD*%
D12*
%TO.C,D16*%
X156237500Y-120350000D03*
X155537500Y-120350000D03*
%TD*%
%TO.C,D17*%
X155797500Y-125900000D03*
X155097500Y-125900000D03*
%TD*%
%TO.C,D18*%
X155857500Y-128740000D03*
X155157500Y-128740000D03*
%TD*%
%TO.C,D19*%
X155840000Y-108490000D03*
X155140000Y-108490000D03*
%TD*%
%TO.C,D20*%
X155070000Y-113450000D03*
X155770000Y-113450000D03*
%TD*%
%TO.C,D21*%
X155867500Y-100250000D03*
X155167500Y-100250000D03*
%TD*%
%TO.C,D22*%
X155867500Y-103550000D03*
X155167500Y-103550000D03*
%TD*%
D13*
%TO.C,U1*%
X99715000Y-66145000D03*
X105265000Y-66145000D03*
X99715000Y-61295000D03*
X105265000Y-61295000D03*
D14*
X99090000Y-72870000D03*
X100790000Y-72870000D03*
X102490000Y-72870000D03*
X104190000Y-72870000D03*
X105890000Y-72870000D03*
%TD*%
D15*
%TO.C,R8*%
X100645000Y-140950000D03*
X98735000Y-140950000D03*
%TD*%
D16*
%TO.C,R2*%
X118665000Y-48795000D03*
X118665000Y-46795000D03*
%TD*%
D17*
%TO.C,R1*%
X120965000Y-46770000D03*
X120965000Y-48770000D03*
%TD*%
D15*
%TO.C,R19*%
X134470000Y-142445000D03*
X132560000Y-142445000D03*
%TD*%
%TO.C,R7*%
X134470000Y-153495000D03*
X132560000Y-153495000D03*
%TD*%
%TO.C,R10*%
X98735000Y-149610000D03*
X100645000Y-149610000D03*
%TD*%
D18*
%TO.C,L1*%
X114402500Y-79080000D03*
X114402500Y-75220000D03*
%TD*%
D15*
%TO.C,R15*%
X134495000Y-145145000D03*
X132585000Y-145145000D03*
%TD*%
%TO.C,R11*%
X98715000Y-152360000D03*
X100625000Y-152360000D03*
%TD*%
%TO.C,R4*%
X98760000Y-160320000D03*
X100670000Y-160320000D03*
%TD*%
%TO.C,R18*%
X134445000Y-140045000D03*
X132535000Y-140045000D03*
%TD*%
%TO.C,R14*%
X98790000Y-168495000D03*
X100700000Y-168495000D03*
%TD*%
%TO.C,R9*%
X98760000Y-143970000D03*
X100670000Y-143970000D03*
%TD*%
%TO.C,R13*%
X98765000Y-165670000D03*
X100675000Y-165670000D03*
%TD*%
%TO.C,R6*%
X134445000Y-160195000D03*
X132535000Y-160195000D03*
%TD*%
%TO.C,R17*%
X134545000Y-150370000D03*
X132635000Y-150370000D03*
%TD*%
%TO.C,R12*%
X98760000Y-157570000D03*
X100670000Y-157570000D03*
%TD*%
%TO.C,R5*%
X98735000Y-137850000D03*
X100645000Y-137850000D03*
%TD*%
%TO.C,R3*%
X98765000Y-162995000D03*
X100675000Y-162995000D03*
%TD*%
%TO.C,R20*%
X134445000Y-134995000D03*
X132535000Y-134995000D03*
%TD*%
%TO.C,R21*%
X134445000Y-137545000D03*
X132535000Y-137545000D03*
%TD*%
%TO.C,R16*%
X134575000Y-147745000D03*
X132665000Y-147745000D03*
%TD*%
M02*
