%TF.GenerationSoftware,KiCad,Pcbnew,9.0.7*%
%TF.CreationDate,2026-03-30T11:04:44+05:30*%
%TF.ProjectId,FINAL_DESIGN,46494e41-4c5f-4444-9553-49474e2e6b69,rev?*%
%TF.SameCoordinates,Original*%
%TF.FileFunction,Paste,Top*%
%TF.FilePolarity,Positive*%
%FSLAX46Y46*%
G04 Gerber Fmt 4.6, Leading zero omitted, Abs format (unit mm)*
G04 Created by KiCad (PCBNEW 9.0.7) date 2026-03-30 11:04:44*
%MOMM*%
%LPD*%
G01*
G04 APERTURE LIST*
G04 Aperture macros list*
%AMRoundRect*
0 Rectangle with rounded corners*
0 $1 Rounding radius*
0 $2 $3 $4 $5 $6 $7 $8 $9 X,Y pos of 4 corners*
0 Add a 4 corners polygon primitive as box body*
4,1,4,$2,$3,$4,$5,$6,$7,$8,$9,$2,$3,0*
0 Add four circle primitives for the rounded corners*
1,1,$1+$1,$2,$3*
1,1,$1+$1,$4,$5*
1,1,$1+$1,$6,$7*
1,1,$1+$1,$8,$9*
0 Add four rect primitives between the rounded corners*
20,1,$1+$1,$2,$3,$4,$5,0*
20,1,$1+$1,$4,$5,$6,$7,0*
20,1,$1+$1,$6,$7,$8,$9,0*
20,1,$1+$1,$8,$9,$2,$3,0*%
G04 Aperture macros list end*
%ADD10RoundRect,0.050000X-0.100000X-0.250000X0.100000X-0.250000X0.100000X0.250000X-0.100000X0.250000X0*%
%ADD11RoundRect,0.050000X0.100000X0.250000X-0.100000X0.250000X-0.100000X-0.250000X0.100000X-0.250000X0*%
%ADD12R,0.920000X1.380000*%
%ADD13RoundRect,0.250000X0.450000X-0.350000X0.450000X0.350000X-0.450000X0.350000X-0.450000X-0.350000X0*%
%ADD14R,5.500000X2.150000*%
%ADD15RoundRect,0.250000X2.375000X-2.025000X2.375000X2.025000X-2.375000X2.025000X-2.375000X-2.025000X0*%
%ADD16RoundRect,0.250000X0.300000X-2.050000X0.300000X2.050000X-0.300000X2.050000X-0.300000X-2.050000X0*%
G04 APERTURE END LIST*
D10*
%TO.C,D9*%
X86590000Y-107350240D03*
X87290000Y-107350240D03*
%TD*%
%TO.C,D4*%
X86590000Y-145970240D03*
X87290000Y-145970240D03*
%TD*%
D11*
%TO.C,D17*%
X146765000Y-117680240D03*
X146065000Y-117680240D03*
%TD*%
D10*
%TO.C,D15*%
X86590000Y-156300240D03*
X87290000Y-156300240D03*
%TD*%
D11*
%TO.C,D22*%
X146765000Y-95330240D03*
X146065000Y-95330240D03*
%TD*%
D12*
%TO.C,R16*%
X134620000Y-139525240D03*
X132710000Y-139525240D03*
%TD*%
D10*
%TO.C,D13*%
X86590000Y-135740240D03*
X87290000Y-135740240D03*
%TD*%
D12*
%TO.C,R21*%
X134620000Y-129325240D03*
X132710000Y-129325240D03*
%TD*%
%TO.C,R20*%
X134620000Y-126775240D03*
X132710000Y-126775240D03*
%TD*%
D10*
%TO.C,D12*%
X86590000Y-125800240D03*
X87290000Y-125800240D03*
%TD*%
D12*
%TO.C,R3*%
X98735000Y-154775240D03*
X100645000Y-154775240D03*
%TD*%
%TO.C,R5*%
X98735000Y-129630240D03*
X100645000Y-129630240D03*
%TD*%
%TO.C,R12*%
X98735000Y-149350240D03*
X100645000Y-149350240D03*
%TD*%
%TO.C,R17*%
X134620000Y-142150240D03*
X132710000Y-142150240D03*
%TD*%
D11*
%TO.C,D20*%
X146765000Y-105230240D03*
X146065000Y-105230240D03*
%TD*%
D13*
%TO.C,R2*%
X120949152Y-44884896D03*
X120949152Y-42884896D03*
%TD*%
D12*
%TO.C,R8*%
X98735000Y-132730240D03*
X100645000Y-132730240D03*
%TD*%
D11*
%TO.C,D21*%
X146765000Y-90810000D03*
X146065000Y-90810000D03*
%TD*%
D10*
%TO.C,D6*%
X86590000Y-103510240D03*
X87290000Y-103510240D03*
%TD*%
D11*
%TO.C,D16*%
X146765000Y-112130240D03*
X146065000Y-112130240D03*
%TD*%
D12*
%TO.C,R6*%
X134385000Y-151975240D03*
X132475000Y-151975240D03*
%TD*%
%TO.C,R13*%
X98735000Y-157450240D03*
X100645000Y-157450240D03*
%TD*%
%TO.C,R9*%
X98735000Y-135810000D03*
X100645000Y-135810000D03*
%TD*%
%TO.C,R14*%
X98735000Y-160275240D03*
X100645000Y-160275240D03*
%TD*%
%TO.C,R18*%
X134620000Y-131825240D03*
X132710000Y-131825240D03*
%TD*%
%TO.C,R4*%
X98735000Y-152100240D03*
X100645000Y-152100240D03*
%TD*%
%TO.C,R11*%
X98735000Y-144140240D03*
X100645000Y-144140240D03*
%TD*%
D13*
%TO.C,R1*%
X126250954Y-46810000D03*
X126250954Y-44810000D03*
%TD*%
D12*
%TO.C,R15*%
X134620000Y-136925240D03*
X132710000Y-136925240D03*
%TD*%
D11*
%TO.C,D7*%
X146765000Y-141090240D03*
X146065000Y-141090240D03*
%TD*%
%TO.C,D19*%
X147027500Y-100270240D03*
X146327500Y-100270240D03*
%TD*%
D10*
%TO.C,D11*%
X86590000Y-120620240D03*
X87290000Y-120620240D03*
%TD*%
D14*
%TO.C,L1*%
X113515000Y-70670000D03*
X113515000Y-66810000D03*
%TD*%
D12*
%TO.C,R10*%
X98735000Y-141390240D03*
X100645000Y-141390240D03*
%TD*%
D11*
%TO.C,D8*%
X146765000Y-125660240D03*
X146065000Y-125660240D03*
%TD*%
%TO.C,D18*%
X147107500Y-120890000D03*
X146407500Y-120890000D03*
%TD*%
D10*
%TO.C,D5*%
X86590000Y-141040240D03*
X87290000Y-141040240D03*
%TD*%
D12*
%TO.C,R7*%
X134620000Y-145275240D03*
X132710000Y-145275240D03*
%TD*%
D10*
%TO.C,D14*%
X86590000Y-151090240D03*
X87290000Y-151090240D03*
%TD*%
D12*
%TO.C,R19*%
X134620000Y-134225240D03*
X132710000Y-134225240D03*
%TD*%
D10*
%TO.C,D10*%
X86590000Y-110670240D03*
X87290000Y-110670240D03*
%TD*%
D15*
%TO.C,U1*%
X98827500Y-57735000D03*
X104377500Y-57735000D03*
X98827500Y-52885000D03*
X104377500Y-52885000D03*
D16*
X98202500Y-64460000D03*
X99902500Y-64460000D03*
X101602500Y-64460000D03*
X103302500Y-64460000D03*
X105002500Y-64460000D03*
%TD*%
M02*
