%TF.GenerationSoftware,KiCad,Pcbnew,9.0.7*%
%TF.CreationDate,2026-03-26T19:38:40+05:30*%
%TF.ProjectId,FINAL_DESIGN,46494e41-4c5f-4444-9553-49474e2e6b69,rev?*%
%TF.SameCoordinates,Original*%
%TF.FileFunction,Copper,L2,Bot*%
%TF.FilePolarity,Positive*%
%FSLAX46Y46*%
G04 Gerber Fmt 4.6, Leading zero omitted, Abs format (unit mm)*
G04 Created by KiCad (PCBNEW 9.0.7) date 2026-03-26 19:38:40*
%MOMM*%
%LPD*%
G01*
G04 APERTURE LIST*
G04 Aperture macros list*
%AMRoundRect*
0 Rectangle with rounded corners*
0 $1 Rounding radius*
0 $2 $3 $4 $5 $6 $7 $8 $9 X,Y pos of 4 corners*
0 Add a 4 corners polygon primitive as box body*
4,1,4,$2,$3,$4,$5,$6,$7,$8,$9,$2,$3,0*
0 Add four circle primitives for the rounded corners*
1,1,$1+$1,$2,$3*
1,1,$1+$1,$4,$5*
1,1,$1+$1,$6,$7*
1,1,$1+$1,$8,$9*
0 Add four rect primitives between the rounded corners*
20,1,$1+$1,$2,$3,$4,$5,0*
20,1,$1+$1,$4,$5,$6,$7,0*
20,1,$1+$1,$6,$7,$8,$9,0*
20,1,$1+$1,$8,$9,$2,$3,0*%
G04 Aperture macros list end*
%TA.AperFunction,ComponentPad*%
%ADD10C,1.600000*%
%TD*%
%TA.AperFunction,ComponentPad*%
%ADD11RoundRect,0.250000X-0.550000X0.550000X-0.550000X-0.550000X0.550000X-0.550000X0.550000X0.550000X0*%
%TD*%
%TA.AperFunction,ComponentPad*%
%ADD12R,1.530000X1.530000*%
%TD*%
%TA.AperFunction,ComponentPad*%
%ADD13C,1.530000*%
%TD*%
%TA.AperFunction,ComponentPad*%
%ADD14RoundRect,0.250000X0.550000X0.550000X-0.550000X0.550000X-0.550000X-0.550000X0.550000X-0.550000X0*%
%TD*%
%TA.AperFunction,ComponentPad*%
%ADD15RoundRect,0.250001X-1.149999X1.149999X-1.149999X-1.149999X1.149999X-1.149999X1.149999X1.149999X0*%
%TD*%
%TA.AperFunction,ComponentPad*%
%ADD16C,2.800000*%
%TD*%
%TA.AperFunction,ComponentPad*%
%ADD17R,1.100000X1.800000*%
%TD*%
%TA.AperFunction,ComponentPad*%
%ADD18RoundRect,0.275000X-0.275000X-0.625000X0.275000X-0.625000X0.275000X0.625000X-0.275000X0.625000X0*%
%TD*%
%TA.AperFunction,ComponentPad*%
%ADD19R,2.400000X2.400000*%
%TD*%
%TA.AperFunction,ComponentPad*%
%ADD20C,2.400000*%
%TD*%
%TA.AperFunction,ComponentPad*%
%ADD21C,2.200000*%
%TD*%
%TA.AperFunction,ComponentPad*%
%ADD22RoundRect,0.250000X1.050000X-1.050000X1.050000X1.050000X-1.050000X1.050000X-1.050000X-1.050000X0*%
%TD*%
%TA.AperFunction,ComponentPad*%
%ADD23C,2.600000*%
%TD*%
%TA.AperFunction,ComponentPad*%
%ADD24RoundRect,0.250000X0.550000X-0.550000X0.550000X0.550000X-0.550000X0.550000X-0.550000X-0.550000X0*%
%TD*%
%TA.AperFunction,ComponentPad*%
%ADD25R,1.700000X1.700000*%
%TD*%
%TA.AperFunction,ComponentPad*%
%ADD26C,1.700000*%
%TD*%
%TA.AperFunction,ComponentPad*%
%ADD27RoundRect,0.250000X1.050000X1.050000X-1.050000X1.050000X-1.050000X-1.050000X1.050000X-1.050000X0*%
%TD*%
%TA.AperFunction,ComponentPad*%
%ADD28C,2.430000*%
%TD*%
%TA.AperFunction,ComponentPad*%
%ADD29R,2.430000X2.430000*%
%TD*%
G04 APERTURE END LIST*
D10*
%TO.P,C4,1*%
%TO.N,/12V*%
X94787500Y-44175000D03*
%TO.P,C4,2*%
%TO.N,GND*%
X94787500Y-46675000D03*
%TD*%
D11*
%TO.P,C3,1*%
%TO.N,/12V*%
X103087500Y-44025000D03*
D10*
%TO.P,C3,2*%
%TO.N,GND*%
X103087500Y-46525000D03*
%TD*%
D12*
%TO.P,U2,J4_1,GND_1*%
%TO.N,unconnected-(U2-GND_1-PadJ4_1)*%
X221200000Y-107640000D03*
D13*
%TO.P,U2,J4_2,G23*%
%TO.N,/ESP32_GPIO_23*%
X221200000Y-110180000D03*
%TO.P,U2,J4_3,G22*%
%TO.N,/ESP32_GPIO_22*%
X221200000Y-112720000D03*
%TO.P,U2,J4_4,TXD*%
%TO.N,/ESP32_GPIO\u00AD_1*%
X221200000Y-115260000D03*
%TO.P,U2,J4_5,RXD*%
%TO.N,/ESP32_GPIO\u00AD_3*%
X221200000Y-117800000D03*
%TO.P,U2,J4_6,G21*%
%TO.N,/ESP32_GPIO_21*%
X221200000Y-120340000D03*
%TO.P,U2,J4_7,GND_7*%
%TO.N,unconnected-(U2-GND_7-PadJ4_7)*%
X221200000Y-122880000D03*
%TO.P,U2,J4_8,G19*%
%TO.N,/ESP32_GPIO_19*%
X221200000Y-125420000D03*
%TO.P,U2,J4_9,G18*%
%TO.N,/ESP32_GPIO_18*%
X221200000Y-127960000D03*
%TO.P,U2,J4_10,G5*%
%TO.N,/ESP32_GPIO_5*%
X221200000Y-130500000D03*
%TO.P,U2,J4_11,G17*%
%TO.N,/ESP32_GPIO_17*%
X221200000Y-133040000D03*
%TO.P,U2,J4_12,G16*%
%TO.N,/ESP32_GPIO_16*%
X221200000Y-135580000D03*
%TO.P,U2,J4_13,G4*%
%TO.N,/ESP32_GPIO_4*%
X221200000Y-138120000D03*
%TO.P,U2,J4_14,G0*%
%TO.N,/ESP32_GPIO_0*%
X221200000Y-140660000D03*
%TO.P,U2,J4_15,G2*%
%TO.N,/ESP32_GPIO_2*%
X221200000Y-143200000D03*
%TO.P,U2,J4_16,G15*%
%TO.N,/ESP32_GPIO_15*%
X221200000Y-145740000D03*
%TO.P,U2,J4_17,SD1*%
%TO.N,/ESP32_GPIO_8*%
X221200000Y-148280000D03*
%TO.P,U2,J4_18,SD0*%
%TO.N,/ESP32_GPIO_7*%
X221200000Y-150820000D03*
%TO.P,U2,J4_19,CLK*%
%TO.N,/ESP32_GPIO_6*%
X221200000Y-153360000D03*
D12*
%TO.P,U2,J5_1,5V*%
%TO.N,unconnected-(U2-5V-PadJ5_1)*%
X195800000Y-153360000D03*
D13*
%TO.P,U2,J5_2,CMD*%
%TO.N,/ESP32_GPIO_11*%
X195800000Y-150820000D03*
%TO.P,U2,J5_3,SD3*%
%TO.N,/ESP32_GPIO_10*%
X195800000Y-148280000D03*
%TO.P,U2,J5_4,SD2*%
%TO.N,/ESP32_GPIO_9*%
X195800000Y-145740000D03*
%TO.P,U2,J5_5,G13*%
%TO.N,/ESP32_GPIO_13*%
X195800000Y-143200000D03*
%TO.P,U2,J5_6,GND_6*%
%TO.N,unconnected-(U2-GND_6-PadJ5_6)*%
X195800000Y-140660000D03*
%TO.P,U2,J5_7,G12*%
%TO.N,/ESP32_GPIO_12*%
X195800000Y-138120000D03*
%TO.P,U2,J5_8,G14*%
%TO.N,/ESP32_GPIO\u00AD_14*%
X195800000Y-135580000D03*
%TO.P,U2,J5_9,G27*%
%TO.N,/ESP32_GPIO_27*%
X195800000Y-133040000D03*
%TO.P,U2,J5_10,G26*%
%TO.N,/ESP32_GPIO_26*%
X195800000Y-130500000D03*
%TO.P,U2,J5_11,G25*%
%TO.N,/ESP32_GPIO_25*%
X195800000Y-127960000D03*
%TO.P,U2,J5_12,G33*%
%TO.N,/ESP32_GPIO_33*%
X195800000Y-125420000D03*
%TO.P,U2,J5_13,G32*%
%TO.N,/ESP32_GPIO_32*%
X195800000Y-122880000D03*
%TO.P,U2,J5_14,G35*%
%TO.N,/ESP32_GPIO_35*%
X195800000Y-120340000D03*
%TO.P,U2,J5_15,G34*%
%TO.N,/ESP32_GPIO_34*%
X195800000Y-117800000D03*
%TO.P,U2,J5_16,SN*%
%TO.N,unconnected-(U2-SN-PadJ5_16)*%
X195800000Y-115260000D03*
%TO.P,U2,J5_17,SP*%
%TO.N,unconnected-(U2-SP-PadJ5_17)*%
X195800000Y-112720000D03*
%TO.P,U2,J5_18,EN*%
%TO.N,unconnected-(U2-EN-PadJ5_18)*%
X195800000Y-110180000D03*
%TO.P,U2,J5_19,3V3*%
%TO.N,unconnected-(U2-3V3-PadJ5_19)*%
X195800000Y-107640000D03*
%TD*%
D14*
%TO.P,C1,1*%
%TO.N,/12V*%
X91637500Y-52950000D03*
D10*
%TO.P,C1,2*%
%TO.N,GND*%
X89137500Y-52950000D03*
%TD*%
D15*
%TO.P,D2,1,K*%
%TO.N,/12V*%
X110287500Y-44250000D03*
D16*
%TO.P,D2,2,A*%
%TO.N,GND*%
X110287500Y-54410000D03*
%TD*%
D17*
%TO.P,Q1,1,D*%
%TO.N,/12V*%
X114667500Y-47620000D03*
D18*
%TO.P,Q1,2,G*%
%TO.N,Net-(Q1-G)*%
X115937500Y-45550000D03*
%TO.P,Q1,3,S*%
%TO.N,Net-(Q1-S)*%
X117207500Y-47620000D03*
%TD*%
D19*
%TO.P,J2,1,1*%
%TO.N,/CLK*%
X79000000Y-69879128D03*
D20*
%TO.P,J2,2,2*%
%TO.N,/SD0*%
X79000000Y-74959128D03*
%TO.P,J2,3,3*%
%TO.N,/SD1*%
X79000000Y-80039128D03*
%TO.P,J2,4,4*%
%TO.N,/I{slash}O_15*%
X79000000Y-85119128D03*
%TO.P,J2,5,5*%
%TO.N,/I{slash}O_2*%
X79000000Y-90199128D03*
%TO.P,J2,6,6*%
%TO.N,/I{slash}O_0*%
X79000000Y-95279128D03*
%TO.P,J2,7,7*%
%TO.N,/I{slash}O_4*%
X79000000Y-100359128D03*
%TO.P,J2,8,8*%
%TO.N,/I{slash}O_16*%
X79000000Y-105439128D03*
%TO.P,J2,9,9*%
%TO.N,/I{slash}O_17*%
X79000000Y-110519128D03*
%TO.P,J2,10,10*%
%TO.N,/I{slash}O_5*%
X79000000Y-115599128D03*
%TO.P,J2,11,11*%
%TO.N,/I{slash}O_18*%
X79000000Y-120679128D03*
%TO.P,J2,12,12*%
%TO.N,/I{slash}O_19*%
X79000000Y-125759128D03*
%TO.P,J2,13,13*%
%TO.N,GND*%
X79000000Y-130839128D03*
%TO.P,J2,14,14*%
%TO.N,/I{slash}O_21*%
X79000000Y-135919128D03*
%TO.P,J2,15,15*%
%TO.N,/RXD*%
X79000000Y-140999128D03*
%TO.P,J2,16,16*%
%TO.N,/TXD*%
X79000000Y-146079128D03*
%TO.P,J2,17,17*%
%TO.N,/I{slash}O_22*%
X79000000Y-151159128D03*
%TO.P,J2,18,18*%
%TO.N,/I{slash}O_23*%
X79000000Y-156239128D03*
%TO.P,J2,19,19*%
%TO.N,GND*%
X79000000Y-161319128D03*
%TD*%
D21*
%TO.P,F1,1*%
%TO.N,Net-(J1-Pin_1)*%
X150400000Y-49250000D03*
X150400000Y-46750000D03*
X146900000Y-49250000D03*
X146900000Y-46750000D03*
%TO.P,F1,2*%
%TO.N,Net-(Q1-S)*%
X141100000Y-49250000D03*
X141100000Y-46750000D03*
X137600000Y-49250000D03*
X137600000Y-46750000D03*
%TD*%
D22*
%TO.P,J1,1,Pin_1*%
%TO.N,Net-(J1-Pin_1)*%
X160090000Y-47300000D03*
D23*
%TO.P,J1,2,Pin_2*%
%TO.N,GND*%
X160090000Y-43800000D03*
%TD*%
D24*
%TO.P,C2,1*%
%TO.N,/5V*%
X115412500Y-61407380D03*
D10*
%TO.P,C2,2*%
%TO.N,GND*%
X115412500Y-58907380D03*
%TD*%
%TO.P,C8,1*%
%TO.N,/5V*%
X128962500Y-61375000D03*
%TO.P,C8,2*%
%TO.N,GND*%
X128962500Y-58875000D03*
%TD*%
D25*
%TO.P,J5,1,Pin_1*%
%TO.N,+3V3*%
X129475000Y-116790240D03*
D26*
%TO.P,J5,2,Pin_2*%
%TO.N,/EN*%
X129475000Y-119330240D03*
%TO.P,J5,3,Pin_3*%
%TO.N,/SP*%
X129475000Y-121870240D03*
%TO.P,J5,4,Pin_4*%
%TO.N,/SN*%
X129475000Y-124410240D03*
%TO.P,J5,5,Pin_5*%
%TO.N,/IO_34*%
X129475000Y-126950240D03*
%TO.P,J5,6,Pin_6*%
%TO.N,/IO_35*%
X129475000Y-129490240D03*
%TO.P,J5,7,Pin_7*%
%TO.N,/IO_32*%
X129475000Y-132030240D03*
%TO.P,J5,8,Pin_8*%
%TO.N,/IO_33*%
X129475000Y-134570240D03*
%TO.P,J5,9,Pin_9*%
%TO.N,/IO_25*%
X129475000Y-137110240D03*
%TO.P,J5,10,Pin_10*%
%TO.N,/IO_26*%
X129475000Y-139650240D03*
%TO.P,J5,11,Pin_11*%
%TO.N,/IO_27*%
X129475000Y-142190240D03*
%TO.P,J5,12,Pin_12*%
%TO.N,/IO_14*%
X129475000Y-144730240D03*
%TO.P,J5,13,Pin_13*%
%TO.N,/I{slash}O_12*%
X129475000Y-147270240D03*
%TO.P,J5,14,Pin_14*%
%TO.N,GND*%
X129475000Y-149810240D03*
%TO.P,J5,15,Pin_15*%
%TO.N,/IO_13*%
X129475000Y-152350240D03*
%TO.P,J5,16,Pin_16*%
%TO.N,/SD2*%
X129475000Y-154890240D03*
%TO.P,J5,17,Pin_17*%
%TO.N,/SD3*%
X129475000Y-157430240D03*
%TO.P,J5,18,Pin_18*%
%TO.N,/CMD*%
X129475000Y-159970240D03*
%TO.P,J5,19,Pin_19*%
%TO.N,VIN 5V*%
X129475000Y-162510240D03*
%TD*%
D25*
%TO.P,J3,1,Pin_1*%
%TO.N,/CLK*%
X104000000Y-116720240D03*
D26*
%TO.P,J3,2,Pin_2*%
%TO.N,/SD0*%
X104000000Y-119260240D03*
%TO.P,J3,3,Pin_3*%
%TO.N,/SD1*%
X104000000Y-121800240D03*
%TO.P,J3,4,Pin_4*%
%TO.N,/I{slash}O_15*%
X104000000Y-124340240D03*
%TO.P,J3,5,Pin_5*%
%TO.N,/I{slash}O_2*%
X104000000Y-126880240D03*
%TO.P,J3,6,Pin_6*%
%TO.N,/I{slash}O_0*%
X104000000Y-129420240D03*
%TO.P,J3,7,Pin_7*%
%TO.N,/IO_4*%
X104000000Y-131960240D03*
%TO.P,J3,8,Pin_8*%
%TO.N,/IO_16*%
X104000000Y-134500240D03*
%TO.P,J3,9,Pin_9*%
%TO.N,/IO_17*%
X104000000Y-137040240D03*
%TO.P,J3,10,Pin_10*%
%TO.N,/I{slash}O_5*%
X104000000Y-139580240D03*
%TO.P,J3,11,Pin_11*%
%TO.N,/IO_18*%
X104000000Y-142120240D03*
%TO.P,J3,12,Pin_12*%
%TO.N,/IO_19*%
X104000000Y-144660240D03*
%TO.P,J3,13,Pin_13*%
%TO.N,GND*%
X104000000Y-147200240D03*
%TO.P,J3,14,Pin_14*%
%TO.N,/IO_21*%
X104000000Y-149740240D03*
%TO.P,J3,15,Pin_15*%
%TO.N,/IO_3*%
X104000000Y-152280240D03*
%TO.P,J3,16,Pin_16*%
%TO.N,/IO_1*%
X104000000Y-154820240D03*
%TO.P,J3,17,Pin_17*%
%TO.N,/IO_22*%
X104000000Y-157360240D03*
%TO.P,J3,18,Pin_18*%
%TO.N,/IO_23*%
X104000000Y-159900240D03*
%TO.P,J3,19,Pin_19*%
%TO.N,GND*%
X104000000Y-162440240D03*
%TD*%
D27*
%TO.P,D3,1,K*%
%TO.N,VIN 5V*%
X151807500Y-60150000D03*
D23*
%TO.P,D3,2,A*%
%TO.N,/5V*%
X136567500Y-60150000D03*
%TD*%
D24*
%TO.P,C5,1*%
%TO.N,/5V*%
X122862500Y-61339760D03*
D10*
%TO.P,C5,2*%
%TO.N,GND*%
X122862500Y-58839760D03*
%TD*%
D19*
%TO.P,J4,1,1*%
%TO.N,+3V3*%
X154475000Y-69879128D03*
D20*
%TO.P,J4,2,2*%
%TO.N,/EN*%
X154475000Y-74959128D03*
%TO.P,J4,3,3*%
%TO.N,/SP*%
X154475000Y-80039128D03*
%TO.P,J4,4,4*%
%TO.N,/SN*%
X154475000Y-85119128D03*
%TO.P,J4,5,5*%
%TO.N,/I{slash}O_34*%
X154475000Y-90199128D03*
%TO.P,J4,6,6*%
%TO.N,/I{slash}O_35*%
X154475000Y-95279128D03*
%TO.P,J4,7,7*%
%TO.N,/I{slash}O_32*%
X154475000Y-100359128D03*
%TO.P,J4,8,8*%
%TO.N,/I{slash}O_33*%
X154475000Y-105439128D03*
%TO.P,J4,9,9*%
%TO.N,/I{slash}O_25*%
X154475000Y-110519128D03*
%TO.P,J4,10,10*%
%TO.N,/I{slash}O_26*%
X154475000Y-115599128D03*
%TO.P,J4,11,11*%
%TO.N,/I{slash}O_27*%
X154475000Y-120679128D03*
%TO.P,J4,12,12*%
%TO.N,/I{slash}O_14*%
X154475000Y-125759128D03*
%TO.P,J4,13,13*%
%TO.N,/I{slash}O_12*%
X154475000Y-130839128D03*
%TO.P,J4,14,14*%
%TO.N,GND*%
X154475000Y-135919128D03*
%TO.P,J4,15,15*%
%TO.N,/I{slash}O_13*%
X154475000Y-140999128D03*
%TO.P,J4,16,16*%
%TO.N,/SD2*%
X154475000Y-146079128D03*
%TO.P,J4,17,17*%
%TO.N,/SD3*%
X154475000Y-151159128D03*
%TO.P,J4,18,18*%
%TO.N,/CMD*%
X154475000Y-156239128D03*
%TO.P,J4,19,19*%
%TO.N,VIN 5V*%
X154475000Y-161319128D03*
%TD*%
D28*
%TO.P,D1,A*%
%TO.N,GND*%
X124370000Y-80460000D03*
D29*
%TO.P,D1,C*%
%TO.N,Net-(U1-OUT)*%
X105390000Y-80460000D03*
%TD*%
D10*
%TO.P,C7,1*%
%TO.N,/5V*%
X131937500Y-61375000D03*
%TO.P,C7,2*%
%TO.N,GND*%
X131937500Y-58875000D03*
%TD*%
%TO.P,C6,1*%
%TO.N,/12V*%
X97362500Y-44175000D03*
%TO.P,C6,2*%
%TO.N,GND*%
X97362500Y-46675000D03*
%TD*%
M02*
