%TF.GenerationSoftware,KiCad,Pcbnew,9.0.7*%
%TF.CreationDate,2026-03-25T15:14:43+05:30*%
%TF.ProjectId,FINAL_DESIGN,46494e41-4c5f-4444-9553-49474e2e6b69,rev?*%
%TF.SameCoordinates,Original*%
%TF.FileFunction,Soldermask,Top*%
%TF.FilePolarity,Negative*%
%FSLAX46Y46*%
G04 Gerber Fmt 4.6, Leading zero omitted, Abs format (unit mm)*
G04 Created by KiCad (PCBNEW 9.0.7) date 2026-03-25 15:14:43*
%MOMM*%
%LPD*%
G01*
G04 APERTURE LIST*
G04 Aperture macros list*
%AMRoundRect*
0 Rectangle with rounded corners*
0 $1 Rounding radius*
0 $2 $3 $4 $5 $6 $7 $8 $9 X,Y pos of 4 corners*
0 Add a 4 corners polygon primitive as box body*
4,1,4,$2,$3,$4,$5,$6,$7,$8,$9,$2,$3,0*
0 Add four circle primitives for the rounded corners*
1,1,$1+$1,$2,$3*
1,1,$1+$1,$4,$5*
1,1,$1+$1,$6,$7*
1,1,$1+$1,$8,$9*
0 Add four rect primitives between the rounded corners*
20,1,$1+$1,$2,$3,$4,$5,0*
20,1,$1+$1,$4,$5,$6,$7,0*
20,1,$1+$1,$6,$7,$8,$9,0*
20,1,$1+$1,$8,$9,$2,$3,0*%
G04 Aperture macros list end*
%ADD10RoundRect,0.075000X0.212500X0.075000X-0.212500X0.075000X-0.212500X-0.075000X0.212500X-0.075000X0*%
%ADD11RoundRect,0.050000X-0.150000X-0.300000X0.150000X-0.300000X0.150000X0.300000X-0.150000X0.300000X0*%
%ADD12RoundRect,0.050000X0.150000X0.300000X-0.150000X0.300000X-0.150000X-0.300000X0.150000X-0.300000X0*%
%ADD13C,2.400000*%
%ADD14C,2.200000*%
%ADD15RoundRect,0.250000X0.300000X-2.050000X0.300000X2.050000X-0.300000X2.050000X-0.300000X-2.050000X0*%
%ADD16RoundRect,0.250002X5.149998X-4.449998X5.149998X4.449998X-5.149998X4.449998X-5.149998X-4.449998X0*%
%ADD17C,2.250000*%
%ADD18RoundRect,0.102000X-0.765000X-0.765000X0.765000X-0.765000X0.765000X0.765000X-0.765000X0.765000X0*%
%ADD19C,1.734000*%
%ADD20RoundRect,0.102000X-0.460000X-0.690000X0.460000X-0.690000X0.460000X0.690000X-0.460000X0.690000X0*%
%ADD21RoundRect,0.102000X-1.200000X1.200000X-1.200000X-1.200000X1.200000X-1.200000X1.200000X1.200000X0*%
%ADD22C,2.604000*%
%ADD23RoundRect,0.250000X-0.450000X0.350000X-0.450000X-0.350000X0.450000X-0.350000X0.450000X0.350000X0*%
%ADD24RoundRect,0.250000X0.450000X-0.350000X0.450000X0.350000X-0.450000X0.350000X-0.450000X-0.350000X0*%
%ADD25C,1.500000*%
%ADD26RoundRect,0.102000X0.460000X0.690000X-0.460000X0.690000X-0.460000X-0.690000X0.460000X-0.690000X0*%
%ADD27C,1.600000*%
%ADD28R,5.500000X2.150000*%
%ADD29RoundRect,0.250000X0.550000X-0.550000X0.550000X0.550000X-0.550000X0.550000X-0.550000X-0.550000X0*%
%ADD30RoundRect,0.250000X1.050000X1.050000X-1.050000X1.050000X-1.050000X-1.050000X1.050000X-1.050000X0*%
%ADD31C,2.600000*%
%ADD32R,1.700000X1.700000*%
%ADD33C,1.700000*%
%ADD34RoundRect,0.250000X1.050000X-1.050000X1.050000X1.050000X-1.050000X1.050000X-1.050000X-1.050000X0*%
%ADD35R,1.100000X1.800000*%
%ADD36RoundRect,0.275000X-0.275000X-0.625000X0.275000X-0.625000X0.275000X0.625000X-0.275000X0.625000X0*%
%ADD37RoundRect,0.250001X-1.149999X1.149999X-1.149999X-1.149999X1.149999X-1.149999X1.149999X1.149999X0*%
%ADD38C,2.800000*%
%ADD39RoundRect,0.250000X0.550000X0.550000X-0.550000X0.550000X-0.550000X-0.550000X0.550000X-0.550000X0*%
%ADD40RoundRect,0.250000X-0.550000X0.550000X-0.550000X-0.550000X0.550000X-0.550000X0.550000X0.550000X0*%
G04 APERTURE END LIST*
D10*
%TO.C,D1*%
X108037500Y-80870000D03*
X107362500Y-80870000D03*
%TD*%
D11*
%TO.C,D4*%
X78182500Y-154190000D03*
X78882500Y-154190000D03*
%TD*%
%TO.C,D5*%
X78360000Y-149260000D03*
X79060000Y-149260000D03*
%TD*%
%TO.C,D6*%
X78402500Y-111730000D03*
X79102500Y-111730000D03*
%TD*%
D12*
%TO.C,D7*%
X155787500Y-149310000D03*
X155087500Y-149310000D03*
%TD*%
%TO.C,D8*%
X155870000Y-133880000D03*
X155170000Y-133880000D03*
%TD*%
D11*
%TO.C,D9*%
X79050000Y-115570000D03*
X78350000Y-115570000D03*
%TD*%
%TO.C,D10*%
X79112500Y-118890000D03*
X78412500Y-118890000D03*
%TD*%
%TO.C,D11*%
X79092500Y-128840000D03*
X78392500Y-128840000D03*
%TD*%
%TO.C,D12*%
X78502500Y-134020000D03*
X79202500Y-134020000D03*
%TD*%
%TO.C,D13*%
X78452500Y-143960000D03*
X79152500Y-143960000D03*
%TD*%
%TO.C,D14*%
X78102500Y-159310000D03*
X78802500Y-159310000D03*
%TD*%
%TO.C,D15*%
X77992500Y-164520000D03*
X78692500Y-164520000D03*
%TD*%
D12*
%TO.C,D16*%
X156237500Y-120350000D03*
X155537500Y-120350000D03*
%TD*%
%TO.C,D17*%
X155797500Y-125900000D03*
X155097500Y-125900000D03*
%TD*%
%TO.C,D18*%
X155857500Y-128740000D03*
X155157500Y-128740000D03*
%TD*%
%TO.C,D19*%
X155840000Y-108490000D03*
X155140000Y-108490000D03*
%TD*%
%TO.C,D20*%
X155070000Y-113450000D03*
X155770000Y-113450000D03*
%TD*%
%TO.C,D21*%
X155867500Y-100250000D03*
X155167500Y-100250000D03*
%TD*%
%TO.C,D22*%
X155867500Y-103550000D03*
X155167500Y-103550000D03*
%TD*%
D13*
%TO.C,F1*%
X132165000Y-54445000D03*
D14*
X138565000Y-55695000D03*
X138565000Y-53195000D03*
X135065000Y-55695000D03*
X135065000Y-53195000D03*
X129265000Y-55695000D03*
X129265000Y-53195000D03*
X125765000Y-55695000D03*
X125765000Y-53195000D03*
%TD*%
D15*
%TO.C,U1*%
X99090000Y-72870000D03*
X100790000Y-72870000D03*
X102490000Y-72870000D03*
D16*
X102490000Y-63720000D03*
D15*
X104190000Y-72870000D03*
X105890000Y-72870000D03*
%TD*%
D17*
%TO.C,U2*%
X223694968Y-80180443D03*
X223694968Y-132180443D03*
X248694968Y-80180443D03*
X248694968Y-132180443D03*
D18*
X248894968Y-83320443D03*
D19*
X248894968Y-85860443D03*
X248894968Y-88400443D03*
X248894968Y-90940443D03*
X248894968Y-93480443D03*
X248894968Y-96020443D03*
X248894968Y-98560443D03*
X248894968Y-101100443D03*
X248894968Y-103640443D03*
X248894968Y-106180443D03*
X248894968Y-108720443D03*
X248894968Y-111260443D03*
X248894968Y-113800443D03*
X248894968Y-116340443D03*
X248894968Y-118880443D03*
X248894968Y-121420443D03*
X248894968Y-123960443D03*
X248894968Y-126500443D03*
X248894968Y-129040443D03*
D18*
X223494968Y-129040443D03*
D19*
X223494968Y-126500443D03*
X223494968Y-123960443D03*
X223494968Y-121420443D03*
X223494968Y-118880443D03*
X223494968Y-116340443D03*
X223494968Y-113800443D03*
X223494968Y-111260443D03*
X223494968Y-108720443D03*
X223494968Y-106180443D03*
X223494968Y-103640443D03*
X223494968Y-101100443D03*
X223494968Y-98560443D03*
X223494968Y-96020443D03*
X223494968Y-93480443D03*
X223494968Y-90940443D03*
X223494968Y-88400443D03*
X223494968Y-85860443D03*
X223494968Y-83320443D03*
%TD*%
D20*
%TO.C,R8*%
X100645000Y-140950000D03*
X98735000Y-140950000D03*
%TD*%
D21*
%TO.C,J6*%
X163160000Y-77908888D03*
D22*
X163160000Y-82988888D03*
X163160000Y-88068888D03*
X163160000Y-93148888D03*
X163160000Y-98228888D03*
X163160000Y-103308888D03*
X163160000Y-108388888D03*
X163160000Y-113468888D03*
X163160000Y-118548888D03*
X163160000Y-123628888D03*
X163160000Y-128708888D03*
X163160000Y-133788888D03*
X163160000Y-138868888D03*
X163160000Y-143948888D03*
X163160000Y-149028888D03*
X163160000Y-154108888D03*
X163160000Y-159188888D03*
X163160000Y-164268888D03*
X163160000Y-169348888D03*
%TD*%
D23*
%TO.C,R2*%
X118665000Y-48795000D03*
X118665000Y-46795000D03*
%TD*%
D24*
%TO.C,R1*%
X120965000Y-46770000D03*
X120965000Y-48770000D03*
%TD*%
D25*
%TO.C,TP2*%
X152880000Y-78120000D03*
%TD*%
D26*
%TO.C,R19*%
X134470000Y-142445000D03*
X132560000Y-142445000D03*
%TD*%
D27*
%TO.C,C6*%
X98190000Y-52395000D03*
X98190000Y-54895000D03*
%TD*%
%TO.C,C7*%
X132765000Y-69595000D03*
X132765000Y-67095000D03*
%TD*%
D26*
%TO.C,R7*%
X134470000Y-153495000D03*
X132560000Y-153495000D03*
%TD*%
D25*
%TO.C,TP3*%
X152590000Y-63995000D03*
%TD*%
D20*
%TO.C,R10*%
X98735000Y-149610000D03*
X100645000Y-149610000D03*
%TD*%
D28*
%TO.C,L1*%
X114402500Y-79080000D03*
X114402500Y-75220000D03*
%TD*%
D26*
%TO.C,R15*%
X134495000Y-145145000D03*
X132585000Y-145145000D03*
%TD*%
D29*
%TO.C,C5*%
X123690000Y-69559760D03*
D27*
X123690000Y-67059760D03*
%TD*%
D30*
%TO.C,D3*%
X152635000Y-68370000D03*
D31*
X137395000Y-68370000D03*
%TD*%
D20*
%TO.C,R11*%
X98715000Y-152360000D03*
X100625000Y-152360000D03*
%TD*%
D32*
%TO.C,J4*%
X129590000Y-124820000D03*
D33*
X129590000Y-127360000D03*
X129590000Y-129900000D03*
X129590000Y-132440000D03*
X129590000Y-134980000D03*
X129590000Y-137520000D03*
X129590000Y-140060000D03*
X129590000Y-142600000D03*
X129590000Y-145140000D03*
X129590000Y-147680000D03*
X129590000Y-150220000D03*
X129590000Y-152760000D03*
X129590000Y-155300000D03*
X129590000Y-157840000D03*
X129590000Y-160380000D03*
X129590000Y-162920000D03*
X129590000Y-165460000D03*
X129590000Y-168000000D03*
X129590000Y-170540000D03*
%TD*%
D20*
%TO.C,R4*%
X98760000Y-160320000D03*
X100670000Y-160320000D03*
%TD*%
D26*
%TO.C,R18*%
X134445000Y-140045000D03*
X132535000Y-140045000D03*
%TD*%
D25*
%TO.C,TP1*%
X115565000Y-61045000D03*
%TD*%
D20*
%TO.C,R14*%
X98790000Y-168495000D03*
X100700000Y-168495000D03*
%TD*%
D27*
%TO.C,C8*%
X129790000Y-69595000D03*
X129790000Y-67095000D03*
%TD*%
D29*
%TO.C,C2*%
X116240000Y-69627380D03*
D27*
X116240000Y-67127380D03*
%TD*%
D20*
%TO.C,R9*%
X98760000Y-143970000D03*
X100670000Y-143970000D03*
%TD*%
D34*
%TO.C,J1*%
X148890000Y-55520000D03*
D31*
X148890000Y-52020000D03*
%TD*%
D20*
%TO.C,R13*%
X98765000Y-165670000D03*
X100675000Y-165670000D03*
%TD*%
D26*
%TO.C,R6*%
X134445000Y-160195000D03*
X132535000Y-160195000D03*
%TD*%
D35*
%TO.C,Q1*%
X115495000Y-55840000D03*
D36*
X116765000Y-53770000D03*
X118035000Y-55840000D03*
%TD*%
D26*
%TO.C,R17*%
X134545000Y-150370000D03*
X132635000Y-150370000D03*
%TD*%
D20*
%TO.C,R12*%
X98760000Y-157570000D03*
X100670000Y-157570000D03*
%TD*%
D37*
%TO.C,D2*%
X111115000Y-52470000D03*
D38*
X111115000Y-62630000D03*
%TD*%
D20*
%TO.C,R5*%
X98735000Y-137850000D03*
X100645000Y-137850000D03*
%TD*%
%TO.C,R3*%
X98765000Y-162995000D03*
X100675000Y-162995000D03*
%TD*%
D39*
%TO.C,C1*%
X92465000Y-61170000D03*
D27*
X89965000Y-61170000D03*
%TD*%
D26*
%TO.C,R20*%
X134445000Y-134995000D03*
X132535000Y-134995000D03*
%TD*%
D40*
%TO.C,C3*%
X103915000Y-52245000D03*
D27*
X103915000Y-54745000D03*
%TD*%
D26*
%TO.C,R21*%
X134445000Y-137545000D03*
X132535000Y-137545000D03*
%TD*%
%TO.C,R16*%
X134575000Y-147745000D03*
X132665000Y-147745000D03*
%TD*%
D27*
%TO.C,C4*%
X95615000Y-52395000D03*
X95615000Y-54895000D03*
%TD*%
D32*
%TO.C,J2*%
X104115000Y-124750000D03*
D33*
X104115000Y-127290000D03*
X104115000Y-129830000D03*
X104115000Y-132370000D03*
X104115000Y-134910000D03*
X104115000Y-137450000D03*
X104115000Y-139990000D03*
X104115000Y-142530000D03*
X104115000Y-145070000D03*
X104115000Y-147610000D03*
X104115000Y-150150000D03*
X104115000Y-152690000D03*
X104115000Y-155230000D03*
X104115000Y-157770000D03*
X104115000Y-160310000D03*
X104115000Y-162850000D03*
X104115000Y-165390000D03*
X104115000Y-167930000D03*
X104115000Y-170470000D03*
%TD*%
D22*
%TO.C,J7*%
X70618107Y-169576159D03*
X70618107Y-164496159D03*
X70618107Y-159416159D03*
X70618107Y-154336159D03*
X70618107Y-149256159D03*
X70618107Y-144176159D03*
X70618107Y-139096159D03*
X70618107Y-134016159D03*
X70618107Y-128936159D03*
X70618107Y-123856159D03*
X70618107Y-118776159D03*
X70618107Y-113696159D03*
X70618107Y-108616159D03*
X70618107Y-103536159D03*
X70618107Y-98456159D03*
X70618107Y-93376159D03*
X70618107Y-88296159D03*
X70618107Y-83216159D03*
D21*
X70618107Y-78136159D03*
%TD*%
M02*
