M48
; DRILL file {KiCad 9.0.7} date 2026-03-30T10:53:56+0530
; FORMAT={-:-/ absolute / metric / decimal}
; #@! TF.CreationDate,2026-03-30T10:53:56+05:30
; #@! TF.GenerationSoftware,Kicad,Pcbnew,9.0.7
; #@! TF.FileFunction,Plated,1,2,PTH
FMAT,2
METRIC
; #@! TA.AperFunction,Plated,PTH,ComponentDrill
T1C0.750
; #@! TA.AperFunction,Plated,PTH,ComponentDrill
T2C0.800
; #@! TA.AperFunction,Plated,PTH,ComponentDrill
T3C1.000
; #@! TA.AperFunction,Plated,PTH,ComponentDrill
T4C1.300
; #@! TA.AperFunction,Plated,PTH,ComponentDrill
T5C1.400
; #@! TA.AperFunction,Plated,PTH,ComponentDrill
T6C1.600
; #@! TA.AperFunction,Plated,PTH,ComponentDrill
T7C1.620
%
G90
G05
T1
X114.608Y-47.03
X115.877Y-45.76
X117.147Y-47.03
T2
X89.078Y-52.76
X91.578Y-52.76
X94.727Y-43.985
X94.727Y-46.485
X97.302Y-43.985
X97.302Y-46.485
X103.027Y-43.835
X103.027Y-46.335
X115.352Y-58.717
X115.352Y-61.217
X122.802Y-58.65
X122.802Y-61.15
X128.903Y-58.685
X128.903Y-61.185
X131.877Y-58.685
X131.877Y-61.185
T3
X103.94Y-116.53
X103.94Y-119.07
X103.94Y-121.61
X103.94Y-124.15
X103.94Y-126.69
X103.94Y-129.23
X103.94Y-131.77
X103.94Y-134.31
X103.94Y-136.85
X103.94Y-139.39
X103.94Y-141.93
X103.94Y-144.47
X103.94Y-147.01
X103.94Y-149.55
X103.94Y-152.09
X103.94Y-154.63
X103.94Y-157.17
X103.94Y-159.71
X103.94Y-162.25
X129.415Y-116.6
X129.415Y-119.14
X129.415Y-121.68
X129.415Y-124.22
X129.415Y-126.76
X129.415Y-129.3
X129.415Y-131.84
X129.415Y-134.38
X129.415Y-136.92
X129.415Y-139.46
X129.415Y-142.0
X129.415Y-144.54
X129.415Y-147.08
X129.415Y-149.62
X129.415Y-152.16
X129.415Y-154.7
X129.415Y-157.24
X129.415Y-159.78
X129.415Y-162.32
T4
X136.507Y-59.96
X151.748Y-59.96
X160.03Y-43.61
X160.03Y-47.11
T5
X110.227Y-44.06
X110.227Y-54.22
X137.54Y-46.56
X137.54Y-49.06
X141.04Y-46.56
X141.04Y-49.06
X146.84Y-46.56
X146.84Y-49.06
X150.34Y-46.56
X150.34Y-49.06
T6
X78.94Y-69.689
X78.94Y-74.769
X78.94Y-79.849
X78.94Y-84.929
X78.94Y-90.009
X78.94Y-95.089
X78.94Y-100.169
X78.94Y-105.249
X78.94Y-110.329
X78.94Y-115.409
X78.94Y-120.489
X78.94Y-125.569
X78.94Y-130.649
X78.94Y-135.729
X78.94Y-140.809
X78.94Y-145.889
X78.94Y-150.969
X78.94Y-156.049
X78.94Y-161.129
X154.415Y-69.689
X154.415Y-74.769
X154.415Y-79.849
X154.415Y-84.929
X154.415Y-90.009
X154.415Y-95.089
X154.415Y-100.169
X154.415Y-105.249
X154.415Y-110.329
X154.415Y-115.409
X154.415Y-120.489
X154.415Y-125.569
X154.415Y-130.649
X154.415Y-135.729
X154.415Y-140.809
X154.415Y-145.889
X154.415Y-150.969
X154.415Y-156.049
X154.415Y-161.129
T7
X105.33Y-80.27
X124.31Y-80.27
M30
